<?xml version="1.0" encoding="UTF-8"?>
<svg width="872px" height="414px" viewBox="0 0 872 414" version="1.1" xmlns="http://www.w3.org/2000/svg" xmlns:xlink="http://www.w3.org/1999/xlink">
    <!-- Generator: Sketch 50.2 (55047) - http://www.bohemiancoding.com/sketch -->
    <title>Group 4</title>
    <desc>Created with Sketch.</desc>
    <defs>
        <linearGradient x1="0%" y1="0%" x2="100%" y2="100%" id="linearGradient-1">
            <stop stop-color="#FFC15E" offset="0%"></stop>
            <stop stop-color="#FFDC5C" offset="100%"></stop>
        </linearGradient>
        <circle id="path-2" cx="142" cy="142" r="142"></circle>
        <filter x="-7.6%" y="-7.8%" width="115.2%" height="115.7%" filterUnits="objectBoundingBox" id="filter-4">
            <feOffset dx="0" dy="0" in="SourceAlpha" result="shadowOffsetOuter1"></feOffset>
            <feGaussianBlur stdDeviation="4.5" in="shadowOffsetOuter1" result="shadowBlurOuter1"></feGaussianBlur>
            <feColorMatrix values="0 0 0 0 0.882352941   0 0 0 0 0.454901961   0 0 0 0 0.22745098  0 0 0 1 0" type="matrix" in="shadowBlurOuter1" result="shadowMatrixOuter1"></feColorMatrix>
            <feMerge>
                <feMergeNode in="shadowMatrixOuter1"></feMergeNode>
                <feMergeNode in="SourceGraphic"></feMergeNode>
            </feMerge>
        </filter>
    </defs>
    <g id="Page-1" stroke="none" stroke-width="1" fill="none" fill-rule="evenodd">
        <g id="Apple-TV" transform="translate(-523.000000, -362.000000)">
            <g id="Group-4" transform="translate(495.000000, 329.000000)">
                <g id="Group">
                    <g id="Group-3" fill="url(#linearGradient-1)">
                        <path d="M89.2,200.28 L140.32,200.28 L140.32,161.04 C140.32,144.12 142.12,118.56 142.84,101.64 L141.4,101.64 C134.56,116.76 127.36,132.24 119.8,147.36 L89.2,200.28 Z M229.96,200.28 L229.96,248.88 L200.08,248.88 L200.08,315.84 L140.32,315.84 L140.32,248.88 L28,248.88 L28,204.6 L121.24,48 L200.08,48 L200.08,200.28 L229.96,200.28 Z" id="4"></path>
                    </g>
                    <g id="Group-2" transform="translate(670.000000, 0.000000)" fill="url(#linearGradient-1)">
                        <path d="M89.2,200.28 L140.32,200.28 L140.32,161.04 C140.32,144.12 142.12,118.56 142.84,101.64 L141.4,101.64 C134.56,116.76 127.36,132.24 119.8,147.36 L89.2,200.28 Z M229.96,200.28 L229.96,248.88 L200.08,248.88 L200.08,315.84 L140.32,315.84 L140.32,248.88 L28,248.88 L28,204.6 L121.24,48 L200.08,48 L200.08,200.28 L229.96,200.28 Z" id="4-copy-4"></path>
                    </g>
                    <g id="资源-1" transform="translate(323.000000, 33.000000)">
                        <mask id="mask-3" fill="white">
                            <use xlink:href="#path-2"></use>
                        </mask>
                        <use id="Mask" fill="url(#linearGradient-1)" xlink:href="#path-2"></use>
                        <g filter="url(#filter-4)" mask="url(#mask-3)" id="Group">
                            <g transform="translate(143.000000, 231.764471) rotate(-24.000000) translate(-143.000000, -231.764471) translate(54.000000, 145.764471)">
                                <g>
                                    <path d="M107.214878,10.290674 C114.542113,6.36585151 123.629681,6.1819339 131.3697,10.5490588 C138.274332,14.3510039 142.862317,21.3396331 143.625185,29.2171765 C152.138447,29.3753802 159.977773,33.9068797 164.396952,41.2242353 C168.415036,47.9604998 168.789142,56.2781522 165.392177,63.3515294 C172.631829,67.6045135 177.093506,75.3906373 177.121615,83.8207059 C177.088471,91.7177266 173.15671,99.0826388 166.6291,103.475118 C170.744151,110.787635 170.624637,119.761234 166.316315,126.960353 C162.194767,133.801146 155.052618,138.231865 147.12269,138.867353 C146.856491,147.321884 142.162504,155.004311 134.7819,159.064941 C127.778393,162.982569 119.346866,163.348138 112.0339,160.051235 C107.538827,166.970205 99.9644987,171.244174 91.7485128,171.497679 C83.5325268,171.751183 75.7117715,167.95223 70.80315,161.323412 C63.2122163,165.329674 54.1235847,165.216798 46.6334,161.023235 C39.6988915,157.225338 35.0912136,150.214987 34.3352625,142.312235 C25.8240809,142.15978 17.9841757,137.633341 13.563495,130.319471 C9.53773279,123.585535 9.16344991,115.263932 12.56827,108.192176 C5.5131671,104.129279 1.05547816,96.681465 0.788952478,88.5115373 C0.522426797,80.3416095 4.48512087,72.6161305 11.26026,68.0971765 C7.13940435,60.764403 7.26435006,51.7689873 11.5872625,44.5547647 C15.7144509,37.7263466 22.8456408,33.2991463 30.76667,32.6477647 C31.0357184,24.1940932 35.7289067,16.5129734 43.10746,12.4501765 C50.3701687,8.35756855 58.8165894,8.2677539 65.8837635,11.5126407 C70.2201778,4.61383592 78.0216326,0 86.9400125,0 C95.333639,0 102.752012,4.06829916 107.214878,10.290674 Z M98.7106192,45.1669796 C95.2098865,47.0272113 91.1993898,48.0854118 86.9400125,48.0854118 C83.2386293,48.0854118 79.7262393,47.2915849 76.5734707,45.8691675 C74.4314574,49.3047826 71.4231171,52.1612558 67.8032575,54.1175294 C64.6711374,55.8651062 61.2068551,56.927041 57.637745,57.2336471 C57.5388796,61.2697875 56.3972614,65.2106299 54.3250675,68.6689412 C52.539125,71.7092028 50.1127245,74.3194425 47.2163175,76.3162941 C50.9536506,82.9663383 51.2139117,91.0351886 47.912975,97.9147059 C51.4213994,99.9787059 54.3553822,102.899002 56.443475,106.405412 C58.243193,109.411388 59.3417699,112.788412 59.65663,116.282647 C63.7689634,116.375925 67.7960312,117.480135 71.3860675,119.498824 C74.4844205,121.22166 77.1684503,123.607851 79.248345,126.488647 C86.1571674,122.858015 94.3385616,122.605248 101.45608,125.802529 C103.633843,122.358673 106.635049,119.518209 110.185625,117.540529 C113.313372,115.780297 116.779392,114.712955 120.351137,114.410118 C120.453442,110.376476 121.589574,106.437667 123.649597,102.974824 C125.461776,99.9307992 127.917839,97.3248596 130.843652,95.3417647 C128.887475,91.8506442 127.854603,87.9134381 127.84376,83.9064706 C127.84026,80.4013332 128.62777,76.941075 130.146995,73.7862353 C126.640298,71.7262268 123.706471,68.8110017 121.616495,65.3098235 C119.825127,62.295893 118.731773,58.915101 118.417557,55.4182941 C114.306264,55.3305521 110.278997,54.2311956 106.68812,52.2164118 C103.495696,50.4932902 100.778284,48.0701602 98.7106192,45.1669796 Z" id="头发" fill="#E1743A" fill-rule="nonzero"></path>
                                    <path d="M93.1104075,32.9908235 C122.170978,36.4214118 141.193993,67.7541176 141.193993,96.6425294 C141.193993,110.393471 141.193993,123.401118 132.180097,132.492176 C122.128325,142.583824 105.749765,146.786294 77.40007,142.355118 C59.3864975,139.496294 21.83808,130.362353 30.0131425,91.5252353 C35.99871,63.1085294 63.6944,29.5316471 93.1104075,32.9908235" id="脸" fill="#F3AC43" fill-rule="nonzero"></path>
                                    <g id="右耳" transform="translate(131.000000, 52.000000)" fill-rule="nonzero">
                                        <path d="M10.3361675,0.373647059 C14.1665489,0.34469118 17.6358103,2.64220434 19.1216332,6.19180853 C20.6074561,9.74141273 19.8161986,13.8416026 17.1178736,16.5750208 C14.4195486,19.308439 10.3474239,20.1348823 6.8057328,18.667884 C3.26404173,17.2008856 0.952725775,13.7303673 0.9526175,9.87923529 C0.936876734,4.65078329 5.13576974,0.39728137 10.3361675,0.373647059" id="Shape" fill="#F3AC44"></path>
                                        <path d="M7.70593,6.24852941 C9.93041898,6.16693745 11.9814236,7.45130667 12.8895225,9.49457114 C13.7976214,11.5378356 13.3809455,13.9307815 11.8364395,15.5423665 C10.2919334,17.1539516 7.92892252,17.6614163 5.86430006,16.824904 C3.7996776,15.9883918 2.44693486,13.9754346 2.445455,11.7374706 C2.41881354,10.3081792 2.95813066,8.9268123 3.94471323,7.89738175 C4.9312958,6.86795119 6.28429062,6.27482168 7.70593,6.24852941" id="Shape" fill="#EE9D39"></path>
                                    </g>
                                    <g id="左耳" transform="translate(30.000000, 45.000000)" fill-rule="nonzero">
                                        <path d="M10.292395,0.226588235 C6.45496971,0.197626854 2.97961741,2.50016848 1.49242302,6.05687536 C0.0052286224,9.61358225 0.800311262,13.7210524 3.50565919,16.4574388 C6.21100712,19.1938252 10.2915897,20.0179589 13.8381404,18.5442353 C17.3846911,17.0705118 19.6958164,13.590386 19.6901625,9.73217647 C19.7014999,7.21756435 18.7168421,4.80182806 16.9535985,3.01835477 C15.1903549,1.23488148 12.7935515,0.230360948 10.292395,0.226588235" id="Shape" fill="#F3AC44"></path>
                                        <path d="M12.8657625,6.14435294 C10.6399794,6.06271723 8.58802774,7.34861594 7.68072725,9.39366443 C6.77342676,11.4387129 7.19270824,13.8328406 8.74020116,15.4433373 C10.2876941,17.0538339 12.653097,17.5577648 14.7172902,16.7167101 C16.7814833,15.8756553 18.1305571,13.8582621 18.1262375,11.619 C18.1737742,8.64813856 15.8205798,6.19913756 12.8657625,6.14435294" id="Shape" fill="#EE9D39"></path>
                                    </g>
                                    <path d="M49.8144502,54.3036223 C49.1471411,52.956782 48.79446,51.5546414 48.79446,50.1151765 C48.79446,39.8805882 66.623205,31.5328235 88.60346,31.5328235 C110.597933,31.5328235 128.41246,39.8805882 128.41246,50.1151765 C128.41246,51.2063779 128.20979,52.2761306 127.821026,53.316604 C132.206218,56.4790646 135.17999,61.3346475 135.17999,65.9244706 C135.17999,73.6004118 130.63039,78.0887647 122.38424,78.3603529 C115.374173,78.5967136 106.597107,75.3769339 102.669403,70.4975438 C102.806442,71.1483533 102.87783,71.8167856 102.87783,72.4997647 C102.87783,79.947 94.34733,86.5222941 84.85004,86.4079412 C71.0126192,86.2320113 67.8927807,81.2641948 67.5997909,74.4157782 C62.9178886,76.9215995 56.0620428,78.3603529 51.0834775,78.3603529 C44.0884675,78.3603529 41.4155775,72.8857059 42.055365,66.6534706 C42.4878542,62.4405496 45.4021363,57.2347871 49.8144502,54.3036223 Z" id="刘海" fill="#E1743A" fill-rule="nonzero"></path>
                                    <path d="M82.3315319,117.486643 C78.0632792,116.61261 74.2904065,114.098751 71.82681,110.464941 C67.56156,104.532882 74.2580025,102.431647 85.5182625,103.560882 L85.5182625,103.575176 C96.536825,104.690118 102.678785,108.549529 95.1008575,114.167118 C92.3845333,116.155041 89.1894308,117.335637 85.877048,117.605857 L84.8777427,125.005476 C85.3089293,125.955363 86.1412945,126.662764 87.1009203,126.908099 C87.7678184,127.052784 88.5043386,126.786676 89.2606775,126.176814 C89.6682927,125.848139 89.9663377,125.519058 90.0983824,125.340244 C90.6773669,124.556185 91.7823324,124.389939 92.5663918,124.968923 C93.3504512,125.547908 93.5166972,126.652873 92.9377126,127.436933 C92.6407071,127.839137 92.1494185,128.381584 91.4761831,128.924437 C89.968031,130.140513 88.2364504,130.766141 86.2913794,130.343007 C84.8532303,129.976902 83.5925663,129.167009 82.6659744,128.05854 C81.2211107,129.1377 79.5785723,129.669465 77.7466619,129.270948 C75.4715696,128.691785 73.6406501,127.002001 72.8738318,124.776491 C72.5563216,123.854993 73.0459509,122.850578 73.9674495,122.533068 C74.888948,122.215557 75.8933631,122.705187 76.2108732,123.626685 C76.5909542,124.729781 77.495896,125.564966 78.5562028,125.83604 C79.2231009,125.980725 79.9596211,125.714618 80.71596,125.104755 C80.999531,124.876102 81.2300728,124.647252 81.3885857,124.468936 L82.3315319,117.486643 Z M116.029018,87.1798235 C118.318035,87.1798235 120.16631,90.0386471 120.16631,93.3977647 C120.16631,96.7568824 118.318035,99.6157059 116.029018,99.6157059 C113.74,99.6157059 111.891725,96.8426471 111.891725,93.3977647 C111.891725,89.9528824 113.754218,87.1798235 116.029018,87.1798235 Z M58.17801,82.7915294 C60.4670275,82.7915294 62.3153025,85.6503529 62.3153025,89.0094706 C62.3153025,92.3685882 60.4670275,95.2274118 58.17801,95.2274118 C55.8889925,95.2274118 54.054935,92.4543529 54.054935,89.0094706 C54.054935,85.5645882 55.90321,82.7915294 58.17801,82.7915294 Z" id="Combined-Shape" fill="#220F06" fill-rule="nonzero"></path>
                                </g>
                            </g>
                        </g>
                        <path d="M97.1115769,294.998138 L81.4815759,276.206617 C77.8294865,271.81581 78.2189278,265.021258 82.3514174,261.030559 C86.483907,257.03986 93.2879119,256.887782 97.5485878,260.690884 L115.783182,276.967178 C120.043858,280.77028 119.071359,288.127885 113.611044,293.40085 C108.150729,298.673814 100.763666,299.388945 97.1115769,294.998138 Z" id="Rectangle-3-Copy" fill="#F3AC43" mask="url(#mask-3)"></path>
                        <path d="M179.483201,276.428171 L193.935294,256.716368 C197.312155,252.110529 203.999094,250.844651 208.870992,253.88895 C213.74289,256.93325 215.536488,263.498356 212.877105,268.552525 L201.495634,290.183066 C198.836252,295.237235 191.46193,296.073589 185.024625,292.051115 C178.58732,288.02864 176.10634,281.03401 179.483201,276.428171 Z" id="Rectangle-3-Copy-3" fill="#F3AC43" mask="url(#mask-3)"></path>
                    </g>
                    <path d="M404.804183,321.038983 L401.786316,302.781282 C401.081165,298.515207 405.00795,293.851521 410.557036,292.364648 C416.106122,290.877774 421.83866,292.953253 423.361018,297.000358 L429.87632,314.320924 C431.398678,318.368029 426.688966,323.2415 419.356883,325.206126 C412.0248,327.170751 405.509335,325.305058 404.804183,321.038983 Z" id="Rectangle-3" fill="#F3AC43"></path>
                    <path d="M509.641211,308.640132 L515.241095,291.002318 C516.549558,286.881085 522.165618,284.508433 527.784916,285.702852 C533.404214,286.897271 537.569696,291.349053 537.08878,295.646186 L535.030584,314.036809 C534.549668,318.333942 528.140774,320.538072 520.715919,318.95987 C513.291064,317.381669 508.332748,312.761364 509.641211,308.640132 Z" id="Rectangle-3-Copy-2" fill="#F3AC43"></path>
                </g>
                <text id="页面不见了，漏出来了下面的小狮子👀" font-family="SourceHanSansSC-Medium, Source Han Sans SC" font-size="36" font-weight="400" fill="#FFC15E">
                    <tspan x="159" y="438">页面不见了，漏出来了下面的小狮子</tspan>
                    <tspan x="735" y="438" font-family="AppleColorEmoji, Apple Color Emoji" font-weight="normal">👀</tspan>
                </text>
            </g>
        </g>
    </g>
</svg>